<?xml version="1.0" encoding="utf-8"?>
<!-- Generator: Adobe Illustrator 23.0.1, SVG Export Plug-In . SVG Version: 6.00 Build 0)  -->
<svg version="1.1" id="Слой_1" xmlns="http://www.w3.org/2000/svg" xmlns:xlink="http://www.w3.org/1999/xlink" x="0px" y="0px"
	 viewBox="0 0 140 96.2" style="enable-background:new 0 0 140 96.2;" xml:space="preserve">
<style type="text/css">
	.st0{fill:#8ABC00;}
	.st1{fill:#FFFFFF;}
	.st2{fill:#E20E0E;}
</style>
<g>
	<path class="st0" d="M120.6,96.2H19.4C8.7,96.2,0,87.6,0,76.9V19.4C0,8.7,8.7,0,19.4,0h101.3C131.3,0,140,8.7,140,19.4v57.5
		C140,87.6,131.3,96.2,120.6,96.2z"/>
</g>
<g>
	<path class="st1" d="M34.9,18.3l-9.3,24.9h-8.7L8.1,18.3h8.2l4.3,15.3c0.5,1.7,0.8,3.2,0.8,4.4h0.1c0.1-1.2,0.4-2.6,0.9-4.3
		l4.4-15.5L34.9,18.3L34.9,18.3z"/>
	<path class="st1" d="M60.3,33H44c0.3,3.6,2.5,5.4,6.8,5.4c2.7,0,5.1-0.7,7.2-1.9V42c-2.3,1.2-5.3,1.8-9,1.8c-4,0-7.1-1.1-9.3-3.3
		c-2.2-2.2-3.3-5.3-3.3-9.3c0-4.1,1.2-7.4,3.6-9.8c2.4-2.4,5.3-3.6,8.8-3.6c3.6,0,6.4,1.1,8.4,3.2s3,5.1,3,8.8L60.3,33L60.3,33z
		 M53.1,28.3c0-3.6-1.4-5.3-4.3-5.3c-1.2,0-2.3,0.5-3.2,1.5s-1.4,2.3-1.6,3.8H53.1z"/>
	<path class="st1" d="M79.6,42.9c-1.1,0.6-2.8,0.9-5.1,0.9c-5.4,0-8.1-2.8-8.1-8.4V24h-4v-5.7h4V13l7.7-2.2v7.5h5.6V24H74v10.1
		c0,2.6,1,3.9,3.1,3.9c0.8,0,1.6-0.2,2.5-0.7V42.9z"/>
	<path class="st1" d="M30.1,86.4c-1.7,1-4.2,1.5-7.5,1.5c-3.8,0-6.9-1.2-9.3-3.5s-3.5-5.3-3.5-9c0-4.2,1.3-7.6,3.8-10
		c2.5-2.4,5.9-3.7,10.2-3.7c2.9,0,5,0.4,6.4,1.2v6.5c-1.6-1.2-3.4-1.8-5.4-1.8c-2.2,0-4,0.6-5.2,1.9c-1.3,1.3-1.9,3.1-1.9,5.3
		c0,2.2,0.6,3.9,1.8,5.2s2.9,1.9,5.1,1.9c1.9,0,3.8-0.6,5.6-1.8L30.1,86.4L30.1,86.4z"/>
	<path class="st1" d="M42.5,87.3h-7.7V50.5h7.7V87.3z"/>
	<path class="st1" d="M52.6,58.5c-1.3,0-2.3-0.4-3.2-1.2c-0.8-0.8-1.2-1.7-1.2-2.8c0-1.2,0.4-2.1,1.2-2.8c0.8-0.7,1.9-1.1,3.2-1.1
		c1.3,0,2.4,0.4,3.2,1.1c0.8,0.7,1.2,1.7,1.2,2.8c0,1.2-0.4,2.1-1.2,2.9C55,58.1,53.9,58.5,52.6,58.5z M56.4,87.3h-7.7V62.4h7.7
		V87.3z"/>
	<path class="st1" d="M86.6,87.3H79V73.5c0-3.8-1.4-5.8-4.1-5.8c-1.3,0-2.4,0.5-3.3,1.5s-1.3,2.3-1.3,3.9v14.2h-7.7V62.4h7.7v3.9
		h0.1c1.8-3,4.5-4.5,8-4.5c5.5,0,8.3,3.4,8.3,10.2L86.6,87.3L86.6,87.3z"/>
	<path class="st1" d="M96.3,58.5c-1.3,0-2.4-0.4-3.2-1.2c-0.8-0.8-1.2-1.7-1.2-2.8c0-1.2,0.4-2.1,1.2-2.8c0.8-0.7,1.9-1.1,3.2-1.1
		c1.3,0,2.4,0.4,3.2,1.1c0.8,0.7,1.2,1.7,1.2,2.8c0,1.2-0.4,2.1-1.2,2.9C98.7,58.1,97.6,58.5,96.3,58.5z M100.1,87.3h-7.7V62.4h7.7
		V87.3z"/>
	<path class="st1" d="M125.1,86.4c-1.7,1-4.2,1.5-7.5,1.5c-3.8,0-6.9-1.2-9.3-3.5s-3.5-5.3-3.5-9c0-4.2,1.3-7.6,3.8-10
		c2.5-2.4,5.9-3.7,10.2-3.7c2.9,0,5.1,0.4,6.4,1.2v6.5c-1.6-1.2-3.4-1.8-5.4-1.8c-2.2,0-3.9,0.6-5.2,1.9s-1.9,3.1-1.9,5.3
		c0,2.2,0.6,3.9,1.8,5.2c1.2,1.3,2.9,1.9,5.1,1.9c1.9,0,3.8-0.6,5.6-1.8L125.1,86.4L125.1,86.4z"/>
</g>
<g>
	<g>
		<g>
			<path class="st2" d="M105.5,22.2c3.6-0.2,6.3-6.1,6.1-9.7c-0.1-3.6-3.2-6.4-6.8-6.3c-3.6,0.2-6.4,3.2-6.3,6.8
				C98.7,16.6,101.9,22.3,105.5,22.2z"/>
		</g>
		<g>
			<path class="st2" d="M96.8,16.1c-1.4-2.9-4.8-4.1-7.6-2.7s-4.1,4.8-2.7,7.6s5.9,6.4,8.7,5C98,24.6,98.2,18.9,96.8,16.1z"/>
		</g>
		<g>
			<path class="st2" d="M113.1,25.1c2.6,2.5,8.8,0.3,11.3-2.3c2.5-2.6,2.4-6.8-0.2-9.3c-2.6-2.5-6.8-2.4-9.3,0.2
				C112.4,16.3,110.5,22.6,113.1,25.1z"/>
		</g>
		<g>
			<path class="st2" d="M131.2,29.2c-1.2-2.9-4.6-4.3-7.5-3s-6.6,5.6-5.3,8.5c1.2,2.9,6.9,3.3,9.9,2
				C131.1,35.5,132.5,32.1,131.2,29.2z"/>
		</g>
	</g>
	<g>
		<path class="st2" d="M105.7,43.9c0.5,1.2,2.1,3.3,4,3.1c2.8-0.3,5-1.9,6.3-5.3c2.5-6.5-3.3-14.7-7.3-16.3
			c-4.1-1.5-13.8,0.8-16.3,7.3c-1.3,3.4-0.6,6,1.2,8.1c1.3,1.4,4.2,0.6,5,0.3c0.8-0.3,2.3-0.8,4-0.1S105.2,42.8,105.7,43.9z"/>
	</g>
</g>
</svg>
